<svg height="84" viewBox="0 0 147.40157 41.32913" width="300" xmlns="http://www.w3.org/2000/svg"><g fill="#00537f"><path d="m35.90029 20.10527a12.36381 12.36381 0 0 1 -3.44094 8.90551 11.84252 11.84252 0 0 1 -8.90551 3.59606 12.36381 12.36381 0 0 1 -8.90552-3.59606 11.84252 11.84252 0 0 1 -3.59606-8.90551 12.36381 12.36381 0 0 1 3.59606-8.90552 11.84252 11.84252 0 0 1 8.90552-3.59606 12.20867 12.20867 0 0 1 8.75039 3.59606 11.84252 11.84252 0 0 1 3.59606 8.90552zm-3.28582 0a9.07577 9.07577 0 0 0 -2.78119-6.6535 9.07577 9.07577 0 0 0 -6.6535-2.78119 9.23091 9.23091 0 0 0 -6.6535 2.78119 9.23091 9.23091 0 0 0 -2.78119 6.6535 9.23091 9.23091 0 0 0 2.78119 6.6535 9.23091 9.23091 0 0 0 6.6535 2.78119 9.07577 9.07577 0 0 0 6.6535-2.78119 9.07577 9.07577 0 0 0 2.78119-6.6535z"></path><path d="m54.48818 10.65132v2.62607h-8.43614v5.56239h7.73088v2.78119h-7.73088v5.71752h8.59127v2.62607h-11.87195v-19.31324z"></path><path d="m73.38631 29.96456-3.28582-5.87265a7.576 7.576 0 0 1 -1.39513.15512h-5.09302v5.71753h-3.28582v-19.31324h8.37908a7.41573 7.41573 0 0 1 5.24814 1.86049 6.49836 6.49836 0 0 1 2.00561 5.09302 6.49836 6.49836 0 0 1 -1.54768 4.46778 6.88376 6.88376 0 0 1 -4.15754 2.31585l3.75119 5.4062zm-10.234-16.68717v8.12591h5.09302a4.46778 4.46778 0 0 0 3.28582-1.23489 4.46778 4.46778 0 0 0 1.23489-3.28582 4.62291 4.62291 0 0 0 -1.23489-3.28582 4.46778 4.46778 0 0 0 -3.28582-1.23489h-5.09302z"></path><path d="m78.14349 35.98467a10.88038 10.88038 0 0 1 -.31024-2.31585v-2.16073h2.00561v2.16073a5.71752 5.71752 0 0 0 .31024 2.00561 1.70537 1.70537 0 0 0 1.70537.77977h1.08001v2.00561h-1.08001a3.44094 3.44094 0 0 1 -2.62607-1.08001 4.46778 4.46778 0 0 1 -1.08489-1.39513zm18.46659-19.00301v12.95196a6.18812 6.18812 0 0 1 -1.86049 4.77802 7.41573 7.41573 0 0 1 -10.49628 0 6.03299 6.03299 0 0 1 -1.86049-4.77802v-12.95196h3.28582v12.95196a3.59606 3.59606 0 0 0 .93489 2.62607 3.44094 3.44094 0 0 0 2.62607.93489 3.28582 3.28582 0 0 0 2.62607-.93489 3.90631 3.90631 0 0 0 .93489-2.62607v-12.95196z"></path><path d="m115.49481 29.96456-6.11788-12.32659v12.32659h-3.13069v-19.31324h3.13069l6.11788 12.32659v-12.32659h3.13069v19.31324z"></path><path d="m132.96202 29.96456-1.86049-4.46778h-8.59127l-1.70537 4.46778h-3.44094l7.88601-19.31324h3.28582l7.88601 19.31324zm-6.9636-16.06668-3.13069 8.43614h6.26301z"></path><path d="m147.40157 29.96456-3.28582-5.87265a7.576 7.576 0 0 1 -1.39513.15512h-5.09302v5.71753h-3.28582v-19.31324h8.37908a7.41573 7.41573 0 0 1 5.24814 1.86049 6.49836 6.49836 0 0 1 2.00561 5.09302 6.49836 6.49836 0 0 1 -1.54768 4.46778 6.88376 6.88376 0 0 1 -4.15754 2.31585l3.75119 5.4062zm-10.234-16.68717v8.12591h5.09302a4.46778 4.46778 0 0 0 3.28582-1.23489 4.46778 4.46778 0 0 0 1.23489-3.28582 4.62291 4.62291 0 0 0 -1.23489-3.28582 4.46778 4.46778 0 0 0 -3.28582-1.23489h-5.09302z"></path><path d="m4.46778 37.83004v1.08001h-3.12558v2.31585h2.93534v1.08001h-2.93534v2.16073h3.12558v1.08001h-4.46778v-7.71577z"></path><path d="m11.04754 42.94098 1.54768 2.31585h-1.39513l-1.39513-2.00561a3.59606 3.59606 0 0 1 -.46512 0h-1.86049v2.00561h-1.39513v-7.71577h3.25094a2.93534 2.93534 0 0 1 2.00561.62465 2.16073 2.16073 0 0 1 .77977 1.86049 2.31585 2.31585 0 0 1 -.62465 1.70537 2.62607 2.62607 0 0 1 -1.54768.93489zm-3.59606-4.62291v2.93534h1.70537a1.70537 1.70537 0 0 0 1.23489-.46512 1.54768 1.54768 0 0 0 .46512-1.08001 1.70537 1.70537 0 0 0 -.46512-1.08001 1.54768 1.54768 0 0 0 -1.23489-.46512h-1.70537z"></path><path d="m18.46659 37.83004a3.59606 3.59606 0 0 1 2.47096.77977 2.93534 2.93534 0 0 1 .93489 2.31585 3.28582 3.28582 0 0 1 -.93489 2.47096 3.44094 3.44094 0 0 1 -2.47096.77977h-1.86049v1.08001h-1.39513v-7.42088zm-1.86049 5.24814h1.86049a2.00561 2.00561 0 0 0 1.54768-.46512 1.86049 1.86049 0 0 0 .46512-1.39513 1.70537 1.70537 0 0 0 -.46512-1.39513 2.00561 2.00561 0 0 0 -1.54768-.46512h-1.86049z"></path><path d="m28.49711 37.83004v1.08001h-3.12558v2.31585h2.93534v1.08001h-2.93534v2.16073h3.12558v1.08001h-4.46778v-7.71577z"></path><path d="m35.85541 42.94098 1.54768 2.31585h-1.39513l-1.39513-2.00561a3.59606 3.59606 0 0 1 -.46512 0h-1.86049v2.00561h-1.39513v-7.71577h3.25094a2.93534 2.93534 0 0 1 2.00561.62465 2.16073 2.16073 0 0 1 .77977 1.86049 2.31585 2.31585 0 0 1 -.62465 1.70537 2.62607 2.62607 0 0 1 -1.54768.93489zm-3.59606-4.62291v2.93534h1.70537a1.70537 1.70537 0 0 0 1.23489-.46512 1.54768 1.54768 0 0 0 .46512-1.08001 1.70537 1.70537 0 0 0 -.46512-1.08001 1.54768 1.54768 0 0 0 -1.23489-.46512h-1.70537z"></path><path d="m40.1634 37.83004v7.42576h-1.39513v-7.42576z"></path><path d="m47.36658 37.83004v1.08001h-3.12558v2.31585h2.93534v1.08001h-2.93534v2.16073h3.12558v1.08001h-4.46778v-7.71577z"></path><path d="m55.96294 37.83004v7.42576h-1.23489l-3.90631-4.93314v4.93314h-1.39513v-7.42576h1.23489l3.90631 4.93314v-4.93314z"></path><path d="m63.63148 39.76541a2.16073 2.16073 0 0 0 -1.70537-.77977 2.31585 2.31585 0 0 0 -1.86049.77977 3.44094 3.44094 0 0 0 -.62465 2.16073 3.28582 3.28582 0 0 0 .62465 2.16073 2.16073 2.16073 0 0 0 1.86049.77977 2.16073 2.16073 0 0 0 1.70537-.77977 3.28582 3.28582 0 0 0 .62465-2.16073 3.44094 3.44094 0 0 0 -.62465-2.16073zm.77977 4.77802a3.44094 3.44094 0 0 1 -2.47096.93489 3.59606 3.59606 0 0 1 -2.47096-.93489 4.15754 4.15754 0 0 1 0-5.24814 3.59606 3.59606 0 0 1 2.47096-.93489 3.44094 3.44094 0 0 1 2.47096.93489 4.31266 4.31266 0 0 1 0 5.24814z"></path><path d="m72.38266 39.76541a2.16073 2.16073 0 0 0 -1.70537-.77977 2.31585 2.31585 0 0 0 -1.86049.77977 3.44094 3.44094 0 0 0 -.62465 2.16073 3.28582 3.28582 0 0 0 .62465 2.16073 2.16073 2.16073 0 0 0 1.86049.77977 2.16073 2.16073 0 0 0 1.70537-.77977 3.28582 3.28582 0 0 0 .62465-2.16073 3.44094 3.44094 0 0 0 -.62465-2.16073zm.77977 4.77802a3.44094 3.44094 0 0 1 -2.47096.93489 3.59606 3.59606 0 0 1 -2.47096-.93489 4.15754 4.15754 0 0 1 0-5.24814 3.59606 3.59606 0 0 1 2.47096-.93489 3.44094 3.44094 0 0 1 2.47096.93489 4.31266 4.31266 0 0 1 0 5.24814z"></path><path d="m80.7658 37.83004a2.47096 2.47096 0 0 1 1.70537.62465 2.00561 2.00561 0 0 1 .62465 1.54768 2.00561 2.00561 0 0 1 -.62465 1.54768 2.62607 2.62607 0 0 1 -1.70537.62465h-1.70537v2.93534h-1.39513v-7.27064zm-1.70537 3.59606h1.70537a1.39513 1.39513 0 0 0 .93489-.31024 1.08001 1.08001 0 0 0 .31024-.93489 1.08001 1.08001 0 0 0 -.31024-.93489 1.39513 1.39513 0 0 0 -.93489-.31024h-1.70537z"></path><path d="m88.74949 37.83004v1.08001h-2.31585v6.34575h-1.39513v-6.34575h-2.31585v-1.08001z"></path><path d="m90.4399 37.83004v7.42576h-1.39513v-7.42576z"></path><path d="m98.87604 41.8609a3.44094 3.44094 0 0 1 -2.47096.93489 3.59606 3.59606 0 0 1 -2.47096-.93489 4.15754 4.15754 0 0 1 0-5.24814 3.59606 3.59606 0 0 1 2.47096-.93489 3.44094 3.44094 0 0 1 2.47096.93489 4.31266 4.31266 0 0 1 0 5.24814zm-4.15754-.31024a2.16073 2.16073 0 0 0 1.70537.77977 2.16073 2.16073 0 0 0 1.70537-.77977 3.28582 3.28582 0 0 0 .62465-2.16073 3.44094 3.44094 0 0 0 -.62465-2.16073 2.31585 2.31585 0 0 0 -1.70537-.77977 2.31585 2.31585 0 0 0 -1.70537.77977 3.44094 3.44094 0 0 0 -.62465 2.16073 3.28582 3.28582 0 0 0 .62465 2.16073z"></path><path d="m107.31706 37.83004v7.42576h-1.23489l-3.90631-4.93314v4.93314h-1.39513v-7.42576h1.23489l3.90631 4.93314v-4.93314z"></path><path d="m118.46746 42.94098 1.54768 2.31585h-1.39513l-1.39513-2.00561a3.59606 3.59606 0 0 1 -.46512 0h-1.86049v2.00561h-1.39513v-7.71577h3.25094a2.93534 2.93534 0 0 1 2.00561.62465 2.16073 2.16073 0 0 1 .77977 1.86049 2.31585 2.31585 0 0 1 -.62465 1.70537 2.62607 2.62607 0 0 1 -1.54768.93489zm-3.59606-4.62291v2.93534h1.70537a1.70537 1.70537 0 0 0 1.23489-.46512 1.54768 1.54768 0 0 0 .46512-1.08001 1.70537 1.70537 0 0 0 -.46512-1.08001 1.54768 1.54768 0 0 0 -1.23489-.46512h-1.70537z"></path><path d="m127.0638 37.83004v1.08001h-3.12558v2.31585h2.93534v1.08001h-2.93534v2.16073h3.12558v1.08001h-4.46778v-7.71577z"></path><path d="m133.95381 37.83004a3.44094 3.44094 0 0 1 2.47096.93489 3.90631 3.90631 0 0 1 0 5.24814 3.44094 3.44094 0 0 1 -2.47096.93489h-1.86049v1.08001h-1.39513v-8.1981zm-1.86049 6.11788h1.86049a2.16073 2.16073 0 0 0 1.70537-.77977 3.28582 3.28582 0 0 0 .62465-2.16073 3.44094 3.44094 0 0 0 -.62465-2.16073 2.31585 2.31585 0 0 0 -1.70537-.77977h-1.86049z"></path><path d="m143.98433 39.76541a2.16073 2.16073 0 0 0 -1.70537-.77977 2.31585 2.31585 0 0 0 -1.86049.77977 3.44094 3.44094 0 0 0 -.62465 2.16073 3.28582 3.28582 0 0 0 .62465 2.16073 2.16073 2.16073 0 0 0 1.86049.77977 2.16073 2.16073 0 0 0 1.70537-.77977 3.28582 3.28582 0 0 0 .62465-2.16073 3.44094 3.44094 0 0 0 -.62465-2.16073zm.77977 4.77802a3.44094 3.44094 0 0 1 -2.47096.93489 3.59606 3.59606 0 0 1 -2.47096-.93489 4.15754 4.15754 0 0 1 0-5.24814 3.59606 3.59606 0 0 1 2.47096-.93489 3.44094 3.44094 0 0 1 2.47096.93489 4.31266 4.31266 0 0 1 0 5.24814z"></path></g><path d="m24.23479 7.43637a4.60063 4.60063 0 0 1 -1.39513 3.44094 4.77802 4.77802 0 0 1 -3.44094 1.39513 4.93314 4.93314 0 0 1 -3.44094-1.39513 4.60063 4.60063 0 0 1 -1.39513-3.44094 4.77802 4.77802 0 0 1 1.39513-3.44094 4.93314 4.93314 0 0 1 3.44094-1.39513 4.77802 4.77802 0 0 1 3.44094 1.39513 4.93314 4.93314 0 0 1 1.39513 3.44094z" fill="#3abad9"></path></svg>
